<svg xmlns="http://www.w3.org/2000/svg" width="32" height="32"><g transform="translate(0 0)"><g class="nc-icon-wrapper" stroke="none" fill="#adb5bd"><path data-color="color-2" d="M27.711,21.887C25.332,21.026,21.368,20,16,20s-9.332,1.026-11.711,1.887 C2.322,22.598,1,24.486,1,26.587V31c0,0.552,0.448,1,1,1h28c0.552,0,1-0.448,1-1v-4.413C31,24.486,29.678,22.598,27.711,21.887z"></path> <path fill="#adb5bd" d="M16,18c4.411,0,8-3.589,8-8V8c0-4.411-3.589-8-8-8S8,3.589,8,8v2C8,14.411,11.589,18,16,18z"></path></g></g></svg>