<?xml version="1.0" encoding="utf-8"?>
<svg version="1.1" xmlns:xlink="http://www.w3.org/1999/xlink" width="22px" height="23px" xmlns="http://www.w3.org/2000/svg">
  <g transform="matrix(1 0 0 1 -1377 -569 )">
    <path d="M 15.0324519230769 14.0869565217391  L 15.6802884615385 13.4057971014493  L 19.078125 9.78260869565217  L 14.3713942307692 9.02898550724638  L 13.4987980769231 8.88405797101449  L 13.1021634615385 8.01449275362319  L 11 3.34782608695652  L 11 17.304347826087  L 11.7800480769231 17.7536231884058  L 15.984375 20.1884057971014  L 15.1911057692308 15.0434782608696  L 15.0324519230769 14.0869565217391  Z M 21.9735576923077 8.7463768115942  C 22.0528846153846 9.01207729468599  21.9471153846154 9.29951690821256  21.65625 9.60869565217391  L 16.8569711538462 14.7391304347826  L 17.9939903846154 21.9855072463768  C 18.0380608974359 22.304347826087  18.0116185897436 22.5531400966184  17.9146634615385 22.731884057971  C 17.8177083333333 22.9106280193237  17.6678685897436 23  17.4651442307692 23  C 17.3153044871795 23  17.1390224358974 22.9420289855072  16.9362980769231 22.8260869565217  L 11 19.4057971014493  L 5.06370192307692 22.8260869565217  C 4.86097756410256 22.9420289855072  4.68469551282051 23  4.53485576923077 23  C 4.33213141025641 23  4.18229166666667 22.9106280193237  4.08533653846154 22.731884057971  C 3.98838141025641 22.5531400966184  3.9619391025641 22.304347826087  4.00600961538462 21.9855072463768  L 5.14302884615385 14.7391304347826  L 0.330528846153846 9.60869565217391  C 0.0484775641025641 9.29951690821256  -0.0528846153846154 9.01207729468599  0.0264423076923077 8.7463768115942  C 0.105769230769231 8.48067632850241  0.34375 8.31400966183575  0.740384615384615 8.2463768115942  L 7.37740384615385 7.18840579710145  L 10.3521634615385 0.594202898550724  C 10.5284455128205 0.19806763285024  10.744391025641 0  11 0  C 11.2467948717949 0  11.4627403846154 0.19806763285024  11.6478365384615 0.594202898550724  L 14.6225961538462 7.18840579710145  L 21.2596153846154 8.2463768115942  C 21.65625 8.31400966183575  21.8942307692308 8.48067632850241  21.9735576923077 8.7463768115942  Z " fill-rule="nonzero" fill="#caf982" stroke="none" transform="matrix(1 0 0 1 1377 569 )" />
  </g>
</svg>